<mxfile host="app.diagrams.net" modified="2022-02-16T11:16:19.938Z" agent="5.0 (Windows NT 10.0; Win64; x64) AppleWebKit/537.36 (KHTML, like Gecko) Chrome/98.0.4758.82 Safari/537.36" etag="KKecWEx5s76DRepChVw8" version="16.5.6" type="github">
  <diagram id="ZFt0uKwoe00eZlFCaO5J" name="Page-1">
    <mxGraphModel dx="782" dy="468" grid="1" gridSize="10" guides="1" tooltips="1" connect="1" arrows="1" fold="1" page="1" pageScale="1" pageWidth="2336" pageHeight="1654" math="0" shadow="0">
      <root>
        <mxCell id="0" />
        <mxCell id="1" parent="0" />
        <mxCell id="YA4OJ5e73Aqq68VyaTnf-2" value="Biometric devices (L0)" style="rounded=0;whiteSpace=wrap;html=1;" parent="1" vertex="1">
          <mxGeometry x="90" y="130" width="70" height="80" as="geometry" />
        </mxCell>
        <mxCell id="YA4OJ5e73Aqq68VyaTnf-3" value="Registration Client" style="rounded=0;whiteSpace=wrap;html=1;" parent="1" vertex="1">
          <mxGeometry x="280" y="140" width="120" height="60" as="geometry" />
        </mxCell>
        <mxCell id="YA4OJ5e73Aqq68VyaTnf-4" value="" style="endArrow=classic;html=1;rounded=0;exitX=1;exitY=0.5;exitDx=0;exitDy=0;entryX=0;entryY=0.5;entryDx=0;entryDy=0;" parent="1" source="YA4OJ5e73Aqq68VyaTnf-2" target="YA4OJ5e73Aqq68VyaTnf-3" edge="1">
          <mxGeometry width="50" height="50" relative="1" as="geometry">
            <mxPoint x="160" y="220" as="sourcePoint" />
            <mxPoint x="210" y="170" as="targetPoint" />
          </mxGeometry>
        </mxCell>
        <mxCell id="YA4OJ5e73Aqq68VyaTnf-5" value="Signed biometrics" style="text;html=1;strokeColor=none;fillColor=none;align=center;verticalAlign=middle;whiteSpace=wrap;rounded=0;" parent="1" vertex="1">
          <mxGeometry x="190" y="130" width="60" height="30" as="geometry" />
        </mxCell>
        <mxCell id="YA4OJ5e73Aqq68VyaTnf-28" style="edgeStyle=orthogonalEdgeStyle;rounded=0;orthogonalLoop=1;jettySize=auto;html=1;exitX=1;exitY=0.5;exitDx=0;exitDy=0;entryX=0;entryY=0.5;entryDx=0;entryDy=0;" parent="1" source="YA4OJ5e73Aqq68VyaTnf-6" target="YA4OJ5e73Aqq68VyaTnf-26" edge="1">
          <mxGeometry relative="1" as="geometry" />
        </mxCell>
        <mxCell id="YA4OJ5e73Aqq68VyaTnf-43" style="edgeStyle=orthogonalEdgeStyle;rounded=0;orthogonalLoop=1;jettySize=auto;html=1;exitX=0.5;exitY=0;exitDx=0;exitDy=0;entryX=0.5;entryY=1;entryDx=0;entryDy=0;entryPerimeter=0;" parent="1" source="YA4OJ5e73Aqq68VyaTnf-6" target="YA4OJ5e73Aqq68VyaTnf-42" edge="1">
          <mxGeometry relative="1" as="geometry" />
        </mxCell>
        <mxCell id="YA4OJ5e73Aqq68VyaTnf-6" value="Registration Processor" style="rounded=0;whiteSpace=wrap;html=1;" parent="1" vertex="1">
          <mxGeometry x="510" y="140" width="120" height="60" as="geometry" />
        </mxCell>
        <mxCell id="YA4OJ5e73Aqq68VyaTnf-7" value="" style="endArrow=classic;html=1;rounded=0;exitX=1;exitY=0.5;exitDx=0;exitDy=0;entryX=0;entryY=0.5;entryDx=0;entryDy=0;" parent="1" source="YA4OJ5e73Aqq68VyaTnf-3" target="YA4OJ5e73Aqq68VyaTnf-6" edge="1">
          <mxGeometry width="50" height="50" relative="1" as="geometry">
            <mxPoint x="400" y="210" as="sourcePoint" />
            <mxPoint x="450" y="160" as="targetPoint" />
          </mxGeometry>
        </mxCell>
        <mxCell id="YA4OJ5e73Aqq68VyaTnf-8" value="Encrypted and Signed packet" style="text;html=1;strokeColor=none;fillColor=none;align=center;verticalAlign=middle;whiteSpace=wrap;rounded=0;" parent="1" vertex="1">
          <mxGeometry x="430" y="130" width="70" height="30" as="geometry" />
        </mxCell>
        <mxCell id="YA4OJ5e73Aqq68VyaTnf-9" value="1" style="ellipse;whiteSpace=wrap;html=1;aspect=fixed;" parent="1" vertex="1">
          <mxGeometry x="209" y="175" width="20" height="20" as="geometry" />
        </mxCell>
        <mxCell id="YA4OJ5e73Aqq68VyaTnf-10" value="2" style="ellipse;whiteSpace=wrap;html=1;aspect=fixed;" parent="1" vertex="1">
          <mxGeometry x="445" y="176" width="20" height="20" as="geometry" />
        </mxCell>
        <mxCell id="YA4OJ5e73Aqq68VyaTnf-11" value="ID Repository" style="rounded=0;whiteSpace=wrap;html=1;" parent="1" vertex="1">
          <mxGeometry x="510" y="300" width="120" height="60" as="geometry" />
        </mxCell>
        <mxCell id="YA4OJ5e73Aqq68VyaTnf-12" value="Postgres DB" style="shape=cylinder3;whiteSpace=wrap;html=1;boundedLbl=1;backgroundOutline=1;size=15;" parent="1" vertex="1">
          <mxGeometry x="610" y="426" width="50" height="60" as="geometry" />
        </mxCell>
        <mxCell id="YA4OJ5e73Aqq68VyaTnf-13" value="Object Store" style="sketch=0;outlineConnect=0;fontColor=#232F3E;gradientColor=none;fillColor=#3F8624;strokeColor=none;dashed=0;verticalLabelPosition=bottom;verticalAlign=top;align=center;html=1;fontSize=12;fontStyle=0;aspect=fixed;pointerEvents=1;shape=mxgraph.aws4.bucket_with_objects;" parent="1" vertex="1">
          <mxGeometry x="390" y="403" width="55.76" height="58" as="geometry" />
        </mxCell>
        <mxCell id="YA4OJ5e73Aqq68VyaTnf-15" value="" style="endArrow=classic;html=1;rounded=0;entryX=0.545;entryY=-0.065;entryDx=0;entryDy=0;entryPerimeter=0;exitX=0.551;exitY=1.027;exitDx=0;exitDy=0;exitPerimeter=0;" parent="1" source="YA4OJ5e73Aqq68VyaTnf-6" target="YA4OJ5e73Aqq68VyaTnf-11" edge="1">
          <mxGeometry width="50" height="50" relative="1" as="geometry">
            <mxPoint x="540" y="250" as="sourcePoint" />
            <mxPoint x="590" y="200" as="targetPoint" />
          </mxGeometry>
        </mxCell>
        <mxCell id="YA4OJ5e73Aqq68VyaTnf-19" value="" style="endArrow=classic;html=1;rounded=0;exitX=0.436;exitY=1.026;exitDx=0;exitDy=0;exitPerimeter=0;" parent="1" source="YA4OJ5e73Aqq68VyaTnf-11" target="YA4OJ5e73Aqq68VyaTnf-13" edge="1">
          <mxGeometry width="50" height="50" relative="1" as="geometry">
            <mxPoint x="530" y="410" as="sourcePoint" />
            <mxPoint x="580" y="360" as="targetPoint" />
          </mxGeometry>
        </mxCell>
        <mxCell id="YA4OJ5e73Aqq68VyaTnf-20" value="Encrypted biometrics, documents" style="text;html=1;strokeColor=none;fillColor=none;align=center;verticalAlign=middle;whiteSpace=wrap;rounded=0;" parent="1" vertex="1">
          <mxGeometry x="465" y="417" width="60" height="30" as="geometry" />
        </mxCell>
        <mxCell id="YA4OJ5e73Aqq68VyaTnf-22" value="" style="endArrow=classic;html=1;rounded=0;exitX=0.608;exitY=1.013;exitDx=0;exitDy=0;exitPerimeter=0;entryX=0.5;entryY=0;entryDx=0;entryDy=0;entryPerimeter=0;" parent="1" source="YA4OJ5e73Aqq68VyaTnf-11" target="YA4OJ5e73Aqq68VyaTnf-12" edge="1">
          <mxGeometry width="50" height="50" relative="1" as="geometry">
            <mxPoint x="600" y="420" as="sourcePoint" />
            <mxPoint x="650" y="370" as="targetPoint" />
          </mxGeometry>
        </mxCell>
        <mxCell id="YA4OJ5e73Aqq68VyaTnf-23" value="&lt;br&gt;Encrypted and Hashed UINs" style="text;html=1;strokeColor=none;fillColor=none;align=center;verticalAlign=middle;whiteSpace=wrap;rounded=0;" parent="1" vertex="1">
          <mxGeometry x="620" y="373" width="71" height="30" as="geometry" />
        </mxCell>
        <mxCell id="YA4OJ5e73Aqq68VyaTnf-24" value="4" style="ellipse;whiteSpace=wrap;html=1;aspect=fixed;" parent="1" vertex="1">
          <mxGeometry x="525" y="385" width="20" height="20" as="geometry" />
        </mxCell>
        <mxCell id="YA4OJ5e73Aqq68VyaTnf-25" value="5" style="ellipse;whiteSpace=wrap;html=1;aspect=fixed;" parent="1" vertex="1">
          <mxGeometry x="584" y="390" width="20" height="20" as="geometry" />
        </mxCell>
        <mxCell id="YA4OJ5e73Aqq68VyaTnf-26" value="ABIS" style="rounded=0;whiteSpace=wrap;html=1;" parent="1" vertex="1">
          <mxGeometry x="750" y="140" width="120" height="60" as="geometry" />
        </mxCell>
        <mxCell id="YA4OJ5e73Aqq68VyaTnf-30" value="Biometrics signed and encrypted with partner key" style="text;html=1;strokeColor=none;fillColor=none;align=center;verticalAlign=middle;whiteSpace=wrap;rounded=0;" parent="1" vertex="1">
          <mxGeometry x="660" y="110" width="70" height="30" as="geometry" />
        </mxCell>
        <mxCell id="YA4OJ5e73Aqq68VyaTnf-31" value="6" style="ellipse;whiteSpace=wrap;html=1;aspect=fixed;" parent="1" vertex="1">
          <mxGeometry x="680" y="176" width="20" height="20" as="geometry" />
        </mxCell>
        <mxCell id="YA4OJ5e73Aqq68VyaTnf-37" value="" style="endArrow=classic;html=1;rounded=0;exitX=0.083;exitY=1;exitDx=0;exitDy=0;exitPerimeter=0;" parent="1" source="YA4OJ5e73Aqq68VyaTnf-6" target="YA4OJ5e73Aqq68VyaTnf-13" edge="1">
          <mxGeometry width="50" height="50" relative="1" as="geometry">
            <mxPoint x="420" y="310" as="sourcePoint" />
            <mxPoint x="470" y="260" as="targetPoint" />
          </mxGeometry>
        </mxCell>
        <mxCell id="YA4OJ5e73Aqq68VyaTnf-38" value="Encrypted packets" style="text;html=1;strokeColor=none;fillColor=none;align=center;verticalAlign=middle;whiteSpace=wrap;rounded=0;" parent="1" vertex="1">
          <mxGeometry x="420" y="252" width="60" height="30" as="geometry" />
        </mxCell>
        <mxCell id="YA4OJ5e73Aqq68VyaTnf-40" value="3" style="ellipse;whiteSpace=wrap;html=1;aspect=fixed;" parent="1" vertex="1">
          <mxGeometry x="440" y="282" width="20" height="20" as="geometry" />
        </mxCell>
        <mxCell id="YA4OJ5e73Aqq68VyaTnf-42" value="RegProc DB" style="shape=cylinder3;whiteSpace=wrap;html=1;boundedLbl=1;backgroundOutline=1;size=15;" parent="1" vertex="1">
          <mxGeometry x="539" y="11" width="61" height="60" as="geometry" />
        </mxCell>
        <mxCell id="YA4OJ5e73Aqq68VyaTnf-44" value="Encrypted demographic data" style="text;html=1;strokeColor=none;fillColor=none;align=center;verticalAlign=middle;whiteSpace=wrap;rounded=0;" parent="1" vertex="1">
          <mxGeometry x="500" y="80" width="60" height="30" as="geometry" />
        </mxCell>
        <mxCell id="YA4OJ5e73Aqq68VyaTnf-45" value="7" style="ellipse;whiteSpace=wrap;html=1;aspect=fixed;" parent="1" vertex="1">
          <mxGeometry x="580" y="100" width="20" height="20" as="geometry" />
        </mxCell>
      </root>
    </mxGraphModel>
  </diagram>
</mxfile>
